<?xml version="1.0" encoding="UTF-8"?>
<svg xmlns="http://www.w3.org/2000/svg" xmlns:xlink="http://www.w3.org/1999/xlink" width="48pt" height="48pt" viewBox="0 0 48 48" version="1.1">
<g id="surface155789">
<path style=" stroke:none;fill-rule:nonzero;fill:rgb(100%,100%,100%);fill-opacity:1;" d="M 42.6875 0.0625 C 42.4375 0.0625 42.203125 0.0859375 42 0.1875 L 40.375 1.8125 L 39.625 1 L 39 2 L 39.8125 2.8125 L 39 3.625 L 38 2.8125 L 37.1875 3.625 L 38 4.375 L 36.375 6 C 35.976562 6.398438 35.976562 6.976562 36.375 7.375 L 29.625 14.125 C 27.515625 12.703125 25.140625 12 23 12 C 20.796875 12 18.789062 12.789062 17.1875 14.1875 C 16.390625 14.984375 15.578125 16.171875 15.375 17.375 C 14.578125 19.773438 12.398438 21.375 10 21.375 C 7.203125 21.375 4.8125 22.390625 2.8125 24.1875 C -1.789062 28.789062 -0.796875 37.210938 5 42.8125 C 8.398438 46.210938 12.578125 48 16.375 48 C 19.171875 48 21.8125 46.984375 23.8125 45.1875 C 25.609375 43.390625 26.625 40.796875 26.625 38 C 26.625 35.398438 28.226562 33.226562 30.625 32.625 C 31.828125 32.226562 32.8125 31.609375 33.8125 30.8125 C 36.851562 27.773438 36.75 22.5625 33.875 18.375 L 40.625 11.625 C 41.023438 12.023438 41.601562 12.023438 42 11.625 L 43.625 10 L 44.375 10.8125 L 45.1875 10 L 44.375 9.1875 L 45.1875 8.375 L 46 9 L 46.8125 8.1875 L 46 7.375 L 47.8125 6 C 48.210938 5.601562 48.210938 5.023438 47.8125 4.625 L 43.375 0.1875 C 43.171875 0.0859375 42.9375 0.0625 42.6875 0.0625 Z M 42.8125 2.625 L 43.625 3.375 L 39.375 7.625 L 38.625 6.8125 Z M 44.625 4.375 L 45.375 5.1875 L 41.1875 9.375 L 40.375 8.625 Z M 23 15 C 24.492188 15 25.976562 15.546875 27.375 16.375 L 21.6875 22.0625 C 21.460938 22.03125 21.234375 22 21 22 C 18.242188 22 16 24.242188 16 27 C 16 29.757812 18.242188 32 21 32 C 23.757812 32 26 29.757812 26 27 C 26 26.765625 25.96875 26.539062 25.9375 26.3125 L 31.625 20.625 C 33.359375 23.554688 33.492188 26.757812 31.625 28.625 C 31.023438 29.226562 30.421875 29.414062 29.625 29.8125 C 26.023438 30.8125 23.578125 34.1875 23.375 38.1875 C 23.375 39.585938 22.976562 41.585938 21.375 43.1875 C 19.773438 44.789062 17.585938 45.1875 16.1875 45.1875 C 12.984375 45.1875 9.601562 43.601562 7 41 C 2.398438 36.398438 1.414062 30.023438 4.8125 26.625 C 6.414062 25.023438 8.414062 24.625 9.8125 24.625 C 13.8125 24.625 16.984375 21.976562 18.1875 18.375 C 18.390625 17.578125 18.773438 16.976562 19.375 16.375 C 20.578125 15.171875 22 15 23 15 Z M 10.875 30.8125 L 9 32.6875 L 15.25 38.875 L 17.0625 37.0625 Z M 10.875 30.8125 "/>
</g>
</svg>
