<?xml version="1.0" encoding="UTF-8" standalone="yes"?>
<svg xmlns="http://www.w3.org/2000/svg" viewBox="0 0 128 128" width="64" height="64" fill="#000000">
  <path d="M 102.39062 15.369141 C 100.71875 15.408203 99.125 16.150391 98 17.400391 L 90 26.400391 C 89 27.500391 88.5 28.899219 88.5 30.199219 L 67.900391 50.800781 C 64.800391 48.600781 61.2 47.400391 57.5 47.400391 C 52.9 47.400391 48.699609 49.200391 45.599609 52.400391 C 44.899609 53.100391 44.300781 53.8 43.800781 54.5 C 40.500781 59 35.5 61.199219 32 62.199219 C 27.7 63.399219 23.799609 65.700391 20.599609 68.900391 C 12.699609 76.800391 12.000391 89.499609 18.900391 99.099609 C 25.600391 108.49961 37.900781 117 46.800781 117 C 54.100781 117 60.799609 113.19922 65.599609 106.19922 C 67.099609 104.09922 68.000781 101.59922 68.800781 99.199219 C 70.300781 93.999219 73.099219 89.8 76.699219 87 L 78.800781 85.199219 C 82.300781 81.699219 83.999219 77.299219 83.699219 72.699219 C 83.599219 71.099219 82.499609 68.700781 81.099609 66.300781 C 78.899609 62.500781 79.499609 57.6 82.599609 54.5 L 97.699219 39.400391 C 99.099219 39.400391 100.49961 38.800391 101.59961 37.900391 L 110.69922 29.800781 C 111.89922 28.700781 112.59922 27.1 112.69922 25.5 C 112.59922 23.9 112.00078 22.299609 110.80078 21.099609 L 106.80078 17.099609 C 106.40078 16.699609 105.90039 16.299609 105.40039 16.099609 C 104.42539 15.574609 103.39375 15.345703 102.39062 15.369141 z M 102.5 21.300781 L 106.5 25.300781 L 97.5 33.5 L 94.400391 30.400391 L 102.5 21.300781 z M 91.300781 35.900391 L 92 36.599609 L 73.199219 55.400391 L 72.5 54.699219 L 91.300781 35.900391 z M 57.5 53.5 C 60 53.5 62.599219 54.300391 64.699219 55.900391 C 70.599219 60.300391 74.299219 65.599219 74.699219 70.199219 C 74.799219 72.999219 73.8 75.600391 71.5 77.900391 C 71 78.400391 70.5 78.799219 70 79.199219 C 65.3 82.799219 61.800391 88.099609 59.900391 94.599609 C 58.900391 97.899609 57.200781 100.79922 54.800781 103.19922 C 51.600781 106.39922 47.899219 108 43.699219 108 C 36.799219 108 29.299219 103.39961 23.699219 95.599609 C 18.499219 88.399609 19.000781 78.899609 24.800781 73.099609 C 27.200781 70.699609 30.299609 68.9 33.599609 68 C 39.999609 66.2 45.199609 62.799609 48.599609 58.099609 C 48.999609 57.599609 49.400391 57.099609 49.900391 56.599609 C 51.900391 54.599609 54.6 53.5 57.5 53.5 z M 51.699219 69.199219 A 7 7 0 0 0 44.699219 76.199219 A 7 7 0 0 0 51.699219 83.199219 A 7 7 0 0 0 58.699219 76.199219 A 7 7 0 0 0 51.699219 69.199219 z M 36.863281 79.5 C 36.100781 79.5 35.350781 79.800391 34.800781 80.400391 C 33.600781 81.600391 33.600781 83.499609 34.800781 84.599609 L 43.300781 93.099609 C 43.900781 93.699609 44.700391 94 45.400391 94 C 46.100391 94 46.9 93.699609 47.5 93.099609 C 48.7 91.899609 48.7 90.000391 47.5 88.900391 L 39 80.400391 C 38.4 79.800391 37.625781 79.5 36.863281 79.5 z"/>
</svg>
